<?xml version="1.0" encoding="UTF-8"?>
<svg version="1.1" xmlns="http://www.w3.org/2000/svg" width="1536" height="1024">
<path d="M0 0 C506.88 0 1013.76 0 1536 0 C1536 337.92 1536 675.84 1536 1024 C1029.12 1024 522.24 1024 0 1024 C0 686.08 0 348.16 0 0 Z " fill="#FEF8ED" transform="translate(0,0)"/>
<path d="M0 0 C1.06518356 -0.00960754 2.13036713 -0.01921509 3.22782898 -0.02911377 C4.36541153 -0.03336365 5.50299408 -0.03761353 6.67504883 -0.04199219 C7.8612532 -0.04769226 9.04745758 -0.05339233 10.26960754 -0.05926514 C12.77689731 -0.06869588 15.28419937 -0.07524145 17.79150391 -0.07910156 C21.60121645 -0.08878871 25.41038503 -0.11982395 29.2199707 -0.15136719 C31.6633269 -0.15789988 34.10668692 -0.1631493 36.55004883 -0.16699219 C38.24124092 -0.18551239 38.24124092 -0.18551239 39.96659851 -0.20440674 C48.20089995 -0.18154529 56.18688369 0.62463284 63.38208008 4.91113281 C68.45468391 10.44488245 70.28044182 16.31852375 71.80395508 23.48925781 C72.095112 24.79549103 72.095112 24.79549103 72.39215088 26.12811279 C72.79736076 27.95563682 73.19708342 29.78438539 73.59155273 31.61425781 C74.19628312 34.41903164 74.81695582 37.21990128 75.44067383 40.02050781 C75.83352298 41.80155468 76.22548171 43.58279823 76.61645508 45.36425781 C76.80077087 46.20176575 76.98508667 47.03927368 77.17498779 47.90216064 C77.84989695 51.0411993 78.44458008 53.94036706 78.44458008 57.16113281 C79.04421395 57.15961393 79.64384782 57.15809505 80.26165241 57.15653014 C115.81005802 57.06699508 151.35844421 56.99837509 186.90693915 56.95687149 C191.17640363 56.95186874 195.44586789 56.94669144 199.71533203 56.94140625 C200.99027866 56.93983239 200.99027866 56.93983239 202.29098178 56.93822673 C216.04893879 56.92082705 229.80682887 56.88929177 243.56474619 56.85252163 C257.68429042 56.81510004 271.80379962 56.79289438 285.9233914 56.78477883 C294.63418759 56.77929358 303.34479458 56.76197623 312.05553252 56.72946694 C318.03086204 56.70830402 324.00609391 56.70193678 329.98145818 56.7071273 C333.42768134 56.70968634 336.87357414 56.70579604 340.31973839 56.68431091 C344.0609511 56.66439633 347.80135569 56.66920021 351.54258728 56.68011475 C352.62529197 56.66846338 353.70799666 56.65681201 354.82351059 56.64480758 C362.95949119 56.70891893 369.1196811 58.33143156 375.38208008 63.66113281 C380.87663462 70.32119892 380.1115584 77.92535182 379.44458008 86.16113281 C378.62846946 92.30530231 377.18376425 98.32743545 375.78833008 104.36035156 C375.40241467 106.08696756 375.01805301 107.81393147 374.63513184 109.54121399 C373.62718225 114.06930593 372.59939398 118.59265307 371.56677246 123.11517334 C370.54860689 127.58825017 369.54770633 132.06517417 368.54614258 136.54199219 C367.35611004 141.8566184 366.16463332 147.17089641 364.96514893 152.48339844 C360.29738169 173.1650988 355.85262886 193.89423957 351.41967773 214.62730408 C350.68865556 218.0407448 349.95303806 221.45317965 349.21557617 224.86523438 C348.85835359 226.52513089 348.50400766 228.18564834 348.15209961 229.84667969 C344.34781835 247.77872445 340.22874442 263.94973373 324.44458008 275.16113281 C314.61575296 280.87582931 305.40859832 284.4804573 293.98829651 284.41941833 C293.17518428 284.42309404 292.36207206 284.42676974 291.52432007 284.43055683 C288.82002186 284.44047747 286.11593168 284.43639793 283.41162109 284.43237305 C281.46447533 284.43676348 279.51733145 284.44206679 277.57019043 284.44821167 C273.38672806 284.45968739 269.20331618 284.4651693 265.01983833 284.46609306 C258.40070641 284.46803805 251.78167856 284.48611442 245.1625824 284.5068512 C228.72344826 284.55597877 212.28428596 284.58692046 195.84509277 284.6081543 C183.06453599 284.62468647 170.28406875 284.64752103 157.50357193 284.69117504 C150.92777558 284.71292294 144.35214945 284.72101193 137.77631962 284.71878231 C133.68085939 284.72045218 129.58550981 284.73451978 125.49008942 284.75199509 C123.59589126 284.75758143 121.70167003 284.75809199 119.80747032 284.75305748 C117.21401117 284.74688878 114.62124623 284.75919652 112.02784729 284.77586365 C111.28522111 284.76965183 110.54259493 284.76344002 109.77746493 284.75703996 C103.22525957 284.83333723 96.6931532 285.91255969 91.94458008 290.66113281 C89.31958332 295.03612741 88.80302144 299.15341119 89.44458008 304.16113281 C90.7366362 308.10752162 92.15874175 311.14717939 95.45695782 313.74800205 C99.5773782 315.6969408 103.10622097 315.57246938 107.6098175 315.53294373 C108.53541149 315.53676829 109.46100547 315.54059285 110.41464776 315.54453331 C113.51763321 315.55382248 116.62017295 315.54182405 119.72314453 315.5300293 C121.94732855 315.53249707 124.1715114 315.53633524 126.39569092 315.54144287 C131.18656089 315.54978515 135.97731202 315.54896955 140.76818275 315.54125786 C148.34454991 315.52968428 155.92076388 315.54182995 163.49711609 315.55787659 C174.12047796 315.57831647 184.74380908 315.59118465 195.3671875 315.5949707 C196.04113106 315.59521557 196.71507462 315.59546044 197.40944072 315.59571273 C204.92567077 315.59825775 212.44189952 315.59882588 219.95812988 315.59777832 C222.68237304 315.5974453 225.4066162 315.5971599 228.13085938 315.59692383 C228.80307053 315.59686104 229.47528168 315.59679825 230.16786287 315.59673356 C241.38685747 315.59612821 252.60577542 315.61122897 263.82474297 315.63775688 C271.35507757 315.654557 278.88510775 315.65275041 286.41544116 315.63693416 C291.1030368 315.63113706 295.79048812 315.64187793 300.47805786 315.65718079 C302.65004088 315.66090699 304.82204813 315.65779908 306.99400902 315.64731026 C309.96250111 315.63393143 312.92994164 315.64515646 315.89839172 315.66233826 C316.75492366 315.65253148 317.61145559 315.6427247 318.49394304 315.63262075 C324.24747802 315.701338 328.63835687 316.92152077 333.44458008 320.16113281 C337.73462729 324.78118366 338.75408562 327.69798717 338.65551758 333.84863281 C338.20589946 338.77777954 336.077915 341.51340392 332.69458008 344.97363281 C329.12176435 347.37841263 326.70071566 347.90576468 322.44458008 348.16113281 C322.76813477 349.155 323.09168945 350.14886719 323.42504883 351.17285156 C326.4746414 361.90170112 325.08568092 373.86789749 320.15551758 383.74316406 C313.74723153 395.17184533 304.96542767 401.9015454 292.25708008 405.53613281 C280.57845615 407.45066133 269.66439237 405.35232968 259.69067383 398.80957031 C250.26773413 391.89395196 245.10211316 382.53831362 242.44458008 371.16113281 C242.26180012 368.42749722 242.16345361 365.82479268 242.19458008 363.09863281 C242.1868457 362.41736328 242.17911133 361.73609375 242.17114258 361.03417969 C242.1888344 356.4298823 242.92712197 353.71350714 244.44458008 349.16113281 C221.67458008 348.83113281 198.90458008 348.50113281 175.44458008 348.16113281 C176.10458008 349.81113281 176.76458008 351.46113281 177.44458008 353.16113281 C177.83451085 356.21784347 177.77813556 359.26911818 177.75708008 362.34863281 C177.74862061 363.62456299 177.74862061 363.62456299 177.73999023 364.92626953 C177.50306058 377.18327407 173.50160145 385.74862855 165.31958008 394.84863281 C156.79384505 402.9773824 144.96400446 406.73046909 133.37426758 406.47363281 C120.92024452 405.14520369 111.09018541 398.86952643 103.16723633 389.45019531 C96.81516337 381.00957228 95.29419639 372.38116535 95.19458008 361.97363281 C95.18523437 361.29623047 95.17588867 360.61882812 95.16625977 359.92089844 C95.19360738 355.6336339 95.8826737 352.14647331 97.44458008 348.16113281 C96.24833008 348.14050781 95.05208008 348.11988281 93.81958008 348.09863281 C83.69543685 346.99155534 73.50715072 340.70585304 66.72192383 333.27441406 C56.74608517 319.86665423 53.99413743 306.594648 55.44458008 290.16113281 C56.27324997 286.14961719 57.56080197 282.78740567 59.44458008 279.16113281 C60.06333008 277.90816406 60.06333008 277.90816406 60.69458008 276.62988281 C66.51553923 265.91402619 75.23135696 257.95011352 86.44458008 253.16113281 C87.10458008 253.16113281 87.76458008 253.16113281 88.44458008 253.16113281 C88.19933594 252.19755859 87.9540918 251.23398437 87.70141602 250.24121094 C85.21379552 240.41332088 82.90338207 230.55528754 80.69458008 220.66113281 C80.321715 218.99810574 79.94874463 217.33510227 79.57568359 215.67211914 C77.06766538 204.47856398 74.58123421 193.2802019 72.09524918 182.08173752 C71.5771444 179.74788756 71.05894739 177.4140581 70.54074097 175.08023071 C68.98422244 168.06956052 67.4283179 161.05875747 65.87579536 154.04720116 C62.09329146 136.96773638 58.25698085 119.90191546 54.34776306 102.85099792 C51.42838431 90.11463458 48.55330121 77.36877237 45.71411133 64.61425781 C45.18824931 62.25455212 44.66083473 59.89519202 44.13208008 57.53613281 C43.3477496 54.03681221 42.56752292 50.5366005 41.78833008 47.03613281 C41.55094116 45.98022949 41.31355225 44.92432617 41.06896973 43.83642578 C40.85454224 42.86850098 40.64011475 41.90057617 40.41918945 40.90332031 C40.23014038 40.05624512 40.04109131 39.20916992 39.84631348 38.33642578 C39.44458008 36.16113281 39.44458008 36.16113281 39.44458008 33.16113281 C38.82119247 33.17001526 38.19780487 33.17889771 37.55552673 33.18804932 C31.05029496 33.27674272 24.54523578 33.3369584 18.03955078 33.38085938 C15.61369852 33.40093852 13.18789445 33.42820756 10.76220703 33.46289062 C7.26949146 33.51156959 3.77741748 33.53413931 0.28442383 33.55175781 C-0.79500992 33.57240295 -1.87444366 33.5930481 -2.98658752 33.61431885 C-9.41899256 33.61622314 -13.3470244 33.03653885 -18.55541992 29.16113281 C-22.48543528 24.22342121 -23.25489392 20.09965248 -23.00463867 13.81738281 C-22.30173113 9.66105995 -20.63900707 6.99382442 -17.55541992 4.16113281 C-12.03875004 0.63985417 -6.43590618 0.04722323 0 0 Z " fill="#017875" transform="translate(252.555419921875,325.8388671875)"/>
<path d="M0 0 C85.8 0 171.6 0 260 0 C256.97089971 15.14550147 253.93488297 30.27685075 250.6875 45.375 C250.49646698 46.2655307 250.30543396 47.1560614 250.10861206 48.07357788 C247.21253154 61.56264761 244.21802142 75.02625815 241.09936523 88.46557617 C239.13875358 96.92942385 237.2515977 105.4061113 235.41796875 113.8984375 C234.74814411 116.98173286 234.07769077 120.06489107 233.40719604 123.14804077 C232.97341568 125.15422714 232.54342436 127.16123701 232.11746216 129.1690979 C231.52019458 131.98338729 230.90974867 134.79454297 230.296875 137.60546875 C230.12419601 138.43730682 229.95151703 139.2691449 229.77360535 140.12619019 C228.28614855 146.85343741 226.13573673 153.9215591 220.5625 158.375 C220.00691406 158.83648438 219.45132813 159.29796875 218.87890625 159.7734375 C214.21864695 162.81568578 210.23409768 163.24837362 204.71708679 163.24050903 C203.99410945 163.24221788 203.27113211 163.24392673 202.52624637 163.24568737 C200.109437 163.24897539 197.69290674 163.23799003 195.27612305 163.22705078 C193.54141751 163.22648652 191.80671149 163.22680352 190.07200623 163.22793579 C185.36579897 163.22850972 180.65969362 163.21674893 175.95351005 163.20278788 C171.03410086 163.19028718 166.11468934 163.18911054 161.19526672 163.18673706 C151.8810113 163.18052035 142.56680282 163.16410694 133.25256807 163.14403808 C122.64806554 163.12168503 112.04356077 163.11068714 101.43904054 163.10064721 C79.62600083 163.07974089 57.81300337 163.04456118 36 163 C30.99396982 141.39957237 26.01118429 119.79614628 21.23046875 98.14453125 C20.73734404 95.91645738 20.24412126 93.68840521 19.75080872 91.46037292 C18.73741311 86.88147169 17.72527396 82.30229524 16.71411133 77.72290039 C15.43161498 71.91524746 14.14562452 66.10837437 12.85869884 60.30170155 C11.8474134 55.73674906 10.83805766 51.17137148 9.82924843 46.6058712 C9.35589122 44.46475591 8.88194559 42.32377061 8.4073391 40.1829319 C7.7437912 37.18854837 7.08290216 34.19358868 6.42260742 31.19848633 C6.23606094 30.35918579 6.04951447 29.51988525 5.85731506 28.65515137 C3.76310587 19.12848933 1.9141773 9.57088649 0 0 Z " fill="#FDF8ED" transform="translate(338,415)"/>
<path d="M0 0 C0.79921875 0.350625 1.5984375 0.70125 2.421875 1.0625 C8.84681191 4.2528135 13.9144878 9.01027655 19 14 C19.85078125 14.81404297 19.85078125 14.81404297 20.71875 15.64453125 C34.85451875 30.49460747 36.78964782 51.24627942 36.3203125 70.6328125 C35.67182086 86.63049468 30.78269833 100.29163488 21 113 C20.2575 114.03125 19.515 115.0625 18.75 116.125 C6.93357737 128.47853275 -8.08276156 134.69982032 -25.02636719 135.40478516 C-37.74938669 135.60920777 -48.22032713 132.21276395 -58 124 C-59.32 122.68 -60.64 121.36 -62 120 C-62.33 142.44 -62.66 164.88 -63 188 C-74.88 188 -86.76 188 -99 188 C-99.02988822 170.93750473 -99.05102972 153.87501793 -99.0625 136.8125 C-99.06335602 135.54816132 -99.06421204 134.28382263 -99.06509399 132.98117065 C-99.08551915 98.81751096 -98.99559559 64.66037699 -98.5 30.5 C-98.48804218 29.67512211 -98.47608437 28.85024422 -98.46376419 28.00037003 C-98.3224706 18.33332169 -98.16384271 8.66671984 -98 -1 C-86.78 -1 -75.56 -1 -64 -1 C-63.505 4.94 -63.505 4.94 -63 11 C-61.72125 9.783125 -60.4425 8.56625 -59.125 7.3125 C-43.60535734 -6.47460393 -18.71388309 -8.51649769 0 0 Z " fill="#017875" transform="translate(1252,462)"/>
<path d="M0 0 C14.62402793 11.0413506 23.51925413 25.97349158 26.7265625 44.05859375 C28.2792528 66.13677901 25.59895472 86.32171731 10.84765625 103.75 C-2.44489673 118.21758529 -19.54490943 126.08256098 -39.11328125 127.296875 C-58.04723319 127.81302508 -76.5734217 122.64807311 -90.8359375 109.68359375 C-103.69454153 97.36032232 -111.45069285 80.86859565 -112.2734375 63.05859375 C-112.33789062 61.86234375 -112.40234375 60.66609375 -112.46875 59.43359375 C-113.16231978 40.87541753 -107.54318795 22.40686858 -94.8984375 8.49609375 C-69.85555755 -17.63466859 -29.54507183 -19.79604957 0 0 Z " fill="#017875" transform="translate(1111.2734375,469.94140625)"/>
<path d="M0 0 C14.35014537 11.03362924 21.78291244 26.3003044 25.27978516 43.78466797 C25.27978516 52.03466797 25.27978516 60.28466797 25.27978516 68.78466797 C-7.72021484 68.78466797 -40.72021484 68.78466797 -74.72021484 68.78466797 C-72.14283404 77.64098461 -72.14283404 77.64098461 -67.80615234 85.09326172 C-66.72021484 86.78466797 -66.72021484 86.78466797 -65.72021484 89.78466797 C-63.88631662 90.90514739 -63.88631662 90.90514739 -61.72021484 91.78466797 C-61.06021484 92.12626953 -60.40021484 92.46787109 -59.72021484 92.81982422 C-59.06021484 93.15884766 -58.40021484 93.49787109 -57.72021484 93.84716797 C-57.06021484 94.18876953 -56.40021484 94.53037109 -55.72021484 94.88232422 C-47.95400607 98.38621919 -35.88352442 98.08561284 -27.72021484 95.72216797 C-22.44413752 93.58906639 -17.72656017 89.7910133 -13.72021484 85.78466797 C-10.98127399 85.69608151 -8.26768214 85.66943318 -5.52880859 85.68701172 C-4.70896988 85.68842667 -3.88913116 85.68984161 -3.04444885 85.69129944 C-0.41550102 85.69691508 2.21336289 85.70947018 4.84228516 85.72216797 C6.62027872 85.72718096 8.39827362 85.73174421 10.17626953 85.73583984 C14.54414061 85.74688958 18.91194864 85.76416466 23.27978516 85.78466797 C21.02018278 98.24774653 11.71548391 108.31792371 1.77197266 115.62841797 C-16.51984138 127.15637794 -38.13457822 131.08061778 -59.25512695 126.39697266 C-77.7514539 121.68314398 -92.58806304 111.11371619 -102.72021484 94.78466797 C-113.03872879 75.81365013 -114.41471801 53.42154744 -108.72021484 32.78466797 C-103.27503613 16.5263684 -92.989561 2.88550155 -77.72021484 -5.21533203 C-52.56203511 -17.60869037 -23.12456849 -16.33751092 0 0 Z " fill="#017875" transform="translate(810.72021484375,469.21533203125)"/>
<path d="M0 0 C11.55 0 23.1 0 35 0 C35.33 23.43 35.66 46.86 36 71 C39.465 67.535 39.465 67.535 43 64 C45.7110366 62.02415977 48.05197029 60.49463045 51 59 C51.75796875 58.60554688 52.5159375 58.21109375 53.296875 57.8046875 C65.31372636 52.720635 82.57129993 52.84781571 94.9375 56.5625 C105.79315923 61.17816548 114.44436145 68.56146263 119.5703125 79.28515625 C123.1101822 88.09437484 124.15272437 96.10449737 124.11352539 105.51538086 C124.11367142 106.44299225 124.11381744 107.37060364 124.1139679 108.32632446 C124.11327485 111.37252189 124.10551105 114.41865709 124.09765625 117.46484375 C124.09578991 119.58476223 124.09436703 121.70468115 124.09336853 123.82460022 C124.08956038 129.3894267 124.07974467 134.95422685 124.06866455 140.51904297 C124.05841379 146.2034469 124.05386307 151.88785511 124.04882812 157.57226562 C124.03812083 168.71485714 124.02053786 179.85742226 124 191 C112.45 191 100.9 191 89 191 C88.98541748 188.56834473 88.97083496 186.13668945 88.95581055 183.63134766 C88.90531974 175.5686742 88.83869953 167.50619094 88.76428509 159.44370461 C88.71968741 154.55867815 88.68040824 149.67373306 88.65356445 144.78857422 C88.6274253 140.0681115 88.5869488 135.34796368 88.53681374 130.62769699 C88.52021648 128.83296013 88.50865797 127.03816889 88.50238609 125.24336624 C88.50923608 107.02083316 88.50923608 107.02083316 79.234375 91.8515625 C73.74684503 87.30420375 67.45663114 86.47251806 60.48828125 86.7109375 C54.21744889 87.43941724 48.40755418 89.3475817 44 94 C39.12287045 101.45077518 36.70711412 108.25258962 36.68115234 117.20849609 C36.67110672 118.00916504 36.6610611 118.80983398 36.65071106 119.63476562 C36.61997884 122.26431605 36.60287181 124.89376511 36.5859375 127.5234375 C36.56721783 129.35333116 36.54764382 131.18321625 36.5272522 133.01309204 C36.47600946 137.8167007 36.43634173 142.62033731 36.39910889 147.42407227 C36.35196482 153.19450599 36.29040071 158.96480182 36.23126221 164.73512268 C36.14314576 173.49002589 36.07331284 182.24490394 36 191 C24.12 191 12.24 191 0 191 C0 127.97 0 64.94 0 0 Z " fill="#007976" transform="translate(857,403)"/>
<path d="M0 0 C1.63498049 -0.00542463 3.26995609 -0.0125492 4.90492249 -0.02124023 C9.33264523 -0.0394361 13.75999409 -0.03242159 18.18772316 -0.01972389 C22.82759208 -0.00957681 27.46742959 -0.01899431 32.1072998 -0.02526855 C39.89825165 -0.03253999 47.68905169 -0.0229705 55.47998047 -0.00390625 C64.47952488 0.01786154 73.47870677 0.01080981 82.4782424 -0.01121187 C90.21349226 -0.02938024 97.94863318 -0.03191717 105.6838975 -0.0214572 C110.3001439 -0.01523016 114.91622007 -0.01436486 119.53245544 -0.02760315 C123.87300472 -0.03918198 128.21308789 -0.03109902 132.55358696 -0.00802612 C134.14385137 -0.00274986 135.73415519 -0.00423428 137.32440376 -0.01307678 C152.23628754 -0.08833119 152.23628754 -0.08833119 157.98632812 4.51757812 C161.67265696 8.29842821 162.28994192 11.39886681 162.48632812 16.51757812 C162.28344866 21.64028465 161.73040325 24.773503 157.98632812 28.51757812 C150.47812432 33.56277327 142.77855011 33.08441679 134.05859375 33.03515625 C132.44479238 33.0405825 130.83099597 33.04770799 129.21720886 33.05639648 C124.85145774 33.07457305 120.48608634 33.06758588 116.1203289 33.05488014 C111.5423267 33.044723 106.96435608 33.05415334 102.38635254 33.0604248 C94.6997293 33.06769332 87.01326 33.05813443 79.32666016 33.0390625 C70.45151319 33.01729527 61.57673384 33.0243472 52.70159578 33.04636812 C45.06906895 33.06454483 37.4366525 33.06706936 29.804111 33.05661345 C25.251004 33.05039098 20.69806954 33.04950845 16.14497375 33.0627594 C11.86350182 33.07435041 7.58250188 33.0662332 3.3010807 33.04318237 C1.73381139 33.03791258 0.16650206 33.03937935 -1.40075111 33.04823303 C-16.26940075 33.12445734 -16.26940075 33.12445734 -23.01367188 28.51757812 C-27.0437706 23.58070719 -27.66109206 19.42658565 -27.39257812 13.10351562 C-26.64428276 7.99659262 -24.2706568 5.5263026 -20.36218262 2.38977051 C-14.24593115 -0.95997954 -6.78016037 -0.03770077 0 0 Z " fill="#007774" transform="translate(405.013671875,449.482421875)"/>
<path d="M0 0 C1.06964493 -0.0071553 2.13928986 -0.01431061 3.24134827 -0.02168274 C5.00940826 -0.02571609 5.00940826 -0.02571609 6.81318665 -0.02983093 C8.6694442 -0.03968773 8.6694442 -0.03968773 10.5632019 -0.04974365 C14.67428323 -0.06951626 18.78532548 -0.08114902 22.8964386 -0.09111023 C24.31219312 -0.09515785 25.72794744 -0.09927477 27.14370155 -0.10346031 C33.7970817 -0.12251658 40.45045073 -0.13674495 47.10385293 -0.14507228 C54.77923195 -0.15483752 62.45432203 -0.18113622 70.12959927 -0.22157317 C76.06430957 -0.25176445 81.99893721 -0.26654412 87.93372279 -0.26985329 C91.47699949 -0.272201 95.01996767 -0.28112386 98.56316185 -0.30631447 C102.52029463 -0.33399233 106.47704969 -0.32975479 110.4342804 -0.32279968 C111.60286591 -0.33560974 112.77145142 -0.3484198 113.97544861 -0.36161804 C120.53821442 -0.31956877 124.6280155 0.19840966 129.94721985 4.14717102 C133.43536861 7.8141992 134.24001886 10.72113453 134.44721985 15.64717102 C134.19806505 21.97913963 132.0625381 25.19050164 127.44721985 29.45967102 C123.61134543 32.04888625 120.37780883 32.27267281 115.81251526 32.29434204 C114.77522278 32.30149734 113.7379303 32.30865265 112.66920471 32.31602478 C111.5366626 32.31871368 110.40412048 32.32140259 109.23725891 32.32417297 C108.0400824 32.33074417 106.84290588 32.33731537 105.60945129 32.34408569 C101.64392227 32.36381154 97.67840651 32.37548344 93.71284485 32.38545227 C92.34477977 32.38950176 90.97671488 32.39361874 89.60865021 32.39780235 C83.18006203 32.41684301 76.75148525 32.43107627 70.32287431 32.43941432 C62.91523316 32.44918227 55.50789117 32.47549462 48.10035539 32.51591522 C42.36601205 32.54612632 36.63175425 32.56088791 30.89733291 32.56419533 C27.47645125 32.56654017 24.0558896 32.57542591 20.63509369 32.60065651 C16.81473977 32.62500037 12.99516664 32.624091 9.17475891 32.61714172 C8.05031372 32.62995178 6.92586853 32.64276184 5.76734924 32.65596008 C-0.68022095 32.6132632 -5.70744608 31.95068146 -11.05278015 28.14717102 C-15.45857541 23.51543755 -16.41476471 19.64498195 -16.33403015 13.42842102 C-15.74458626 8.64737616 -12.90457219 5.89755924 -9.42778015 2.83467102 C-5.9694054 0.37740475 -4.20171807 0.0192458 0 0 Z " fill="#027775" transform="translate(408.0527801513672,515.8528289794922)"/>
<path d="M0 0 C7.0471538 5.64713493 11.63522185 13.53199396 13.52734375 22.375 C14.66628028 35.29446756 14.03649203 47.4638968 6.27734375 58.3125 C-0.09584844 65.79525006 -8.23299607 69.4236344 -17.91015625 70.6953125 C-27.78541398 71.17008451 -37.02292992 67.73088062 -44.50390625 61.34765625 C-52.98257297 52.85216678 -55.71533835 43.12462962 -55.84765625 31.3125 C-55.7306451 20.88631879 -53.34009034 12.38453435 -46.47265625 4.375 C-33.66548753 -7.46090195 -14.91181945 -9.79986871 0 0 Z " fill="#FCF8ED" transform="translate(1089.47265625,495.625)"/>
<path d="M0 0 C8.48095134 6.12979651 12.25621933 13.46359265 14.5546875 23.5234375 C14.96257092 27.0156934 15.03298616 30.44739596 14.9921875 33.9609375 C14.98461426 34.87963623 14.97704102 35.79833496 14.96923828 36.74487305 C14.71671135 47.14548049 12.00918842 55.98647529 4.5546875 63.5234375 C-3.9874043 70.52234118 -12.50471342 72.60382166 -23.4453125 71.5234375 C-31.09407494 69.82484265 -37.3827046 66.57555512 -42.4453125 60.5234375 C-47.880275 51.89959395 -49.83839082 43.36204375 -49.8203125 33.2734375 C-49.81870117 32.34265381 -49.81708984 31.41187012 -49.81542969 30.45288086 C-49.69174718 23.51756621 -48.78220976 17.69901472 -45.4453125 11.5234375 C-44.8678125 10.4509375 -44.2903125 9.3784375 -43.6953125 8.2734375 C-32.70651335 -5.15731702 -15.4633407 -9.33728879 0 0 Z " fill="#FCF8ED" transform="translate(1237.4453125,493.4765625)"/>
<path d="M0 0 C8.52044511 5.92183429 13.49329972 12.97319888 16 23 C-4.79 23 -25.58 23 -47 23 C-44.58223824 13.32895298 -41.38678409 6.87027735 -33.05078125 1.21875 C-23.22287177 -4.62183621 -10.32706554 -5.24708508 0 0 Z " fill="#FCF8EE" transform="translate(783,489)"/>
<path d="M0 0 C11.55 0 23.1 0 35 0 C35 23.76 35 47.52 35 72 C34.67 72 34.34 72 34 72 C34 48.57 34 25.14 34 1 C23.44 1 12.88 1 2 1 C2 63.04 2 125.08 2 189 C12.56 189 23.12 189 34 189 C33.99476318 186.75944824 33.98952637 184.51889648 33.98413086 182.21044922 C33.96754334 174.79847628 33.95650809 167.38650251 33.94818783 159.97451591 C33.94297458 155.48169852 33.93590524 150.98890018 33.92456055 146.49609375 C33.91367628 142.15836526 33.90771142 137.82065507 33.90512276 133.48291397 C33.90327849 131.82996457 33.89967712 130.17701614 33.89426994 128.52407455 C33.88698598 126.20466719 33.88601216 123.88533498 33.88647461 121.56591797 C33.884254 120.24687469 33.88203339 118.92783142 33.87974548 117.56881714 C33.99052651 114.28114664 34.37111245 111.22431656 35 108 C35.33 108 35.66 108 36 108 C36 135.39 36 162.78 36 191 C24.12 191 12.24 191 0 191 C0 127.97 0 64.94 0 0 Z " fill="#026261" transform="translate(857,403)"/>
<path d="M0 0 C3.10485394 2.50113234 5.46336676 5.23923352 7.25 8.8125 C7.80068562 14.53963048 6.81556975 17.33006945 3.25 21.8125 C0.29671516 25.23831041 -1.99862532 25.75091191 -6.5625 26.125 C-10.94620197 26.06053379 -13.39568303 24.69877274 -16.75 21.8125 C-20.11548613 17.99828239 -20.31823655 14.16433638 -20.171875 9.25390625 C-19.3635069 4.5758501 -16.65847138 2.26030588 -12.9375 -0.5625 C-8.36163222 -1.8698908 -4.31624142 -1.86383152 0 0 Z " fill="#FAF7EE" transform="translate(395.75,677.1875)"/>
<path d="M0 0 C3.48554291 2.99918809 5.33976072 5.00582946 6.0390625 9.64453125 C6.28885675 14.02907771 6.2412931 17.29045127 3.4375 20.8125 C-0.83476862 24.69638057 -3.34104257 25.78778008 -9.28515625 25.6328125 C-13.42384739 24.97891525 -16.21103675 22.52700125 -18.94921875 19.5078125 C-21.47625604 15.43848598 -21.03308015 10.92287852 -20.3125 6.3125 C-18.70237081 3.07307341 -16.37502053 1.11855006 -13.5 -1.0625 C-8.37965237 -2.52545646 -4.65895078 -2.37342776 0 0 Z " fill="#FAF8EE" transform="translate(543.3125,677.6875)"/>
<path d="M0 0 C85.8 0 171.6 0 260 0 C259.34 1.32 258.68 2.64 258 4 C258 3.34 258 2.68 258 2 C173.52 2 89.04 2 2 2 C2.33 4.31 2.66 6.62 3 9 C1 6 1 6 0 0 Z " fill="#C3DEDA" transform="translate(338,415)"/>
<path d="M0 0 C1.65 1.65 3.3 3.3 5 5 C4.01 5.33 3.02 5.66 2 6 C1.67 26.79 1.34 47.58 1 69 C0.67 69 0.34 69 0 69 C0 46.23 0 23.46 0 0 Z " fill="#EEF2ED" transform="translate(1189,581)"/>
<path d="M0 0 C0 3.38052219 -0.43365089 3.88869475 -2.4375 6.4375 C-4.40191764 8.93919426 -5.40016344 10.86292373 -6 14 C-6.66 14 -7.32 14 -8 14 C-9.79203512 22.98271694 -11.43708547 31.83808082 -12 41 C-12.33 41 -12.66 41 -13 41 C-13.62546976 26.17984163 -11.71339821 15.45435051 -3 3 C-2.02857066 1.97222325 -1.03775115 0.96076665 0 0 Z " fill="#095D5C" transform="translate(321,592)"/>
<path d="M0 0 C1.82835109 4.82227601 -0.43513815 8.32979565 -2.38671875 12.8046875 C-4.78664915 17.55806054 -7.76331201 21.78391075 -11 26 C-11 22.72236256 -10.39640986 20.93981024 -9 18 C-8.30197266 17.36578125 -8.30197266 17.36578125 -7.58984375 16.71875 C-5.4344698 14.388616 -4.5491794 11.93905028 -3.375 9 C-2.94960937 7.948125 -2.52421875 6.89625 -2.0859375 5.8125 C-1.34448249 3.89218487 -0.65095051 1.95285154 0 0 Z " fill="#105F5C" transform="translate(1284,549)"/>
<path d="M0 0 C2.92190787 2.62971708 4.84381836 5.73305811 7 9 C8.31543279 10.68083079 9.64316249 12.3524116 11 14 C10.01 14 9.02 14 8 14 C6.2109375 12.20703125 6.2109375 12.20703125 4.375 9.8125 C3.76398438 9.03519531 3.15296875 8.25789062 2.5234375 7.45703125 C0.94110542 4.90501362 0.38842123 2.95515075 0 0 Z " fill="#E9F4F0" transform="translate(1037,543)"/>
<path d="M0 0 C0 0.66 0 1.32 0 2 C-0.78375 2.28875 -1.5675 2.5775 -2.375 2.875 C-5.09671632 3.84912254 -5.09671632 3.84912254 -7 6 C-8.32 5.34 -9.64 4.68 -11 4 C-9.73760288 3.13341385 -8.46472499 2.28207941 -7.1875 1.4375 C-6.47980469 0.96183594 -5.77210938 0.48617188 -5.04296875 -0.00390625 C-3 -1 -3 -1 0 0 Z " fill="#0F706E" transform="translate(244,328)"/>
<path d="M0 0 C4.48421069 1.25140763 7.68386534 2.68386534 11 6 C11.8125 8.75 11.8125 8.75 12 11 C11.4225 10.195625 10.845 9.39125 10.25 8.5625 C8.01873107 6.02133261 7.25543229 5.34879632 4 5 C4 4.01 4 3.02 4 2 C2.68 1.67 1.36 1.34 0 1 C0 0.67 0 0.34 0 0 Z " fill="#106460" transform="translate(554,450)"/>
<path d="M0 0 C1.485 0.99 1.485 0.99 3 2 C2.67 3.65 2.34 5.3 2 7 C1.34 7 0.68 7 0 7 C-0.33 8.32 -0.66 9.64 -1 11 C-0.67 7.37 -0.34 3.74 0 0 Z " fill="#0E6B6A" transform="translate(580,494)"/>
<path d="M0 0 C0.99 0.66 1.98 1.32 3 2 C3.99 2.33 4.98 2.66 6 3 C0.7265625 6.22265625 0.7265625 6.22265625 -1 7 C-1.66 6.67 -2.32 6.34 -3 6 C-2.67 4.68 -2.34 3.36 -2 2 C-1.34 2 -0.68 2 0 2 C0 1.34 0 0.68 0 0 Z " fill="#036563" transform="translate(1202,488)"/>
<path d="M0 0 C0 0.66 0 1.32 0 2 C-1.2065625 2.37125 -1.2065625 2.37125 -2.4375 2.75 C-5.171081 3.72238859 -5.171081 3.72238859 -5.8125 6.125 C-5.9053125 7.053125 -5.9053125 7.053125 -6 8 C-6.99 7.67 -7.98 7.34 -9 7 C-7.4576387 2.93377477 -4.5679954 0 0 0 Z " fill="#F2F8F3" transform="translate(353,611)"/>
<path d="M0 0 C1 3 1 3 -0.25 5.5625 C-2 8 -2 8 -5 10 C-5.66 9.34 -6.32 8.68 -7 8 C-6.21625 7.4225 -5.4325 6.845 -4.625 6.25 C-2.19952756 4.17102363 -1.14305583 2.90959667 0 0 Z " fill="#E2EEEA" transform="translate(541,537)"/>
</svg>
